<?xml version="1.0" encoding="us-ascii" standalone="no"?><svg xmlns="http://www.w3.org/2000/svg" xmlns:xlink="http://www.w3.org/1999/xlink" contentStyleType="text/css" height="648px" preserveAspectRatio="none" style="width:1653px;height:648px;background:#FFFFFF;" version="1.1" viewBox="0 0 1653 648" width="1653px" zoomAndPan="magnify"><defs/><g><rect fill="#FFFFFF" height="73.7031" style="stroke:#181818;stroke-width:1.0;" width="10" x="228.5" y="145.3125"/><rect fill="#FFFFFF" height="60.7031" style="stroke:#181818;stroke-width:1.0;" width="10" x="782" y="310.0703"/><rect fill="#FFFFFF" height="30.3516" style="stroke:#181818;stroke-width:1.0;" width="10" x="1205" y="401.125"/><rect fill="#FFFFFF" height="79.7031" style="stroke:#181818;stroke-width:1.0;" width="10" x="1462" y="461.8281"/><line style="stroke:#181818;stroke-width:0.5;stroke-dasharray:5.0,5.0;" x1="36" x2="36" y1="82.6094" y2="566.5313"/><line style="stroke:#181818;stroke-width:0.5;stroke-dasharray:5.0,5.0;" x1="129" x2="129" y1="82.6094" y2="566.5313"/><line style="stroke:#181818;stroke-width:0.5;stroke-dasharray:5.0,5.0;" x1="233" x2="233" y1="82.6094" y2="566.5313"/><line style="stroke:#181818;stroke-width:0.5;stroke-dasharray:5.0,5.0;" x1="469" x2="469" y1="82.6094" y2="566.5313"/><line style="stroke:#181818;stroke-width:0.5;stroke-dasharray:5.0,5.0;" x1="658" x2="658" y1="82.6094" y2="566.5313"/><line style="stroke:#181818;stroke-width:0.5;stroke-dasharray:5.0,5.0;" x1="787" x2="787" y1="82.6094" y2="566.5313"/><line style="stroke:#181818;stroke-width:0.5;stroke-dasharray:5.0,5.0;" x1="1032" x2="1032" y1="82.6094" y2="566.5313"/><line style="stroke:#181818;stroke-width:0.5;stroke-dasharray:5.0,5.0;" x1="1209.5" x2="1209.5" y1="82.6094" y2="566.5313"/><line style="stroke:#181818;stroke-width:0.5;stroke-dasharray:5.0,5.0;" x1="1376" x2="1376" y1="82.6094" y2="566.5313"/><line style="stroke:#181818;stroke-width:0.5;stroke-dasharray:5.0,5.0;" x1="1467" x2="1467" y1="82.6094" y2="566.5313"/><text fill="#000000" font-family="sans-serif" font-size="14" lengthAdjust="spacing" textLength="56" x="5" y="79.5332">CAN Bus</text><ellipse cx="36" cy="13.5" fill="#E2E2F0" rx="8" ry="8" style="stroke:#181818;stroke-width:0.5;"/><path d="M36,21.5 L36,48.5 M23,29.5 L49,29.5 M36,48.5 L23,63.5 M36,48.5 L49,63.5 " fill="none" style="stroke:#181818;stroke-width:0.5;"/><text fill="#000000" font-family="sans-serif" font-size="14" lengthAdjust="spacing" textLength="56" x="5" y="580.0645">CAN Bus</text><ellipse cx="36" cy="591.6406" fill="#E2E2F0" rx="8" ry="8" style="stroke:#181818;stroke-width:0.5;"/><path d="M36,599.6406 L36,626.6406 M23,607.6406 L49,607.6406 M36,626.6406 L23,641.6406 M36,626.6406 L49,641.6406 " fill="none" style="stroke:#181818;stroke-width:0.5;"/><rect fill="#EEEEFF" height="49.2188" rx="2.5" ry="2.5" style="stroke:#333333;stroke-width:0.5;" width="94" x="82" y="32.3906"/><text fill="#000000" font-family="sans-serif" font-size="14" lengthAdjust="spacing" textLength="70" x="94" y="53.9238">CAN Driver</text><text fill="#000000" font-family="sans-serif" font-size="14" lengthAdjust="spacing" textLength="80" x="89" y="71.5332">(esp32_can)</text><rect fill="#EEEEFF" height="49.2188" rx="2.5" ry="2.5" style="stroke:#333333;stroke-width:0.5;" width="94" x="82" y="565.5313"/><text fill="#000000" font-family="sans-serif" font-size="14" lengthAdjust="spacing" textLength="70" x="94" y="587.0645">CAN Driver</text><text fill="#000000" font-family="sans-serif" font-size="14" lengthAdjust="spacing" textLength="80" x="89" y="604.6738">(esp32_can)</text><rect fill="#EEEEFF" height="31.6094" rx="2.5" ry="2.5" style="stroke:#333333;stroke-width:0.5;" width="95" x="186" y="50"/><text fill="#000000" font-family="sans-serif" font-size="14" lengthAdjust="spacing" textLength="81" x="193" y="71.5332">CanInterface</text><rect fill="#EEEEFF" height="31.6094" rx="2.5" ry="2.5" style="stroke:#333333;stroke-width:0.5;" width="95" x="186" y="565.5313"/><text fill="#000000" font-family="sans-serif" font-size="14" lengthAdjust="spacing" textLength="81" x="193" y="587.0645">CanInterface</text><rect fill="#EEEEFF" height="31.6094" rx="2.5" ry="2.5" style="stroke:#333333;stroke-width:0.5;" width="93" x="423" y="50"/><text fill="#000000" font-family="sans-serif" font-size="14" lengthAdjust="spacing" textLength="79" x="430" y="71.5332">EventQueue</text><rect fill="#EEEEFF" height="31.6094" rx="2.5" ry="2.5" style="stroke:#333333;stroke-width:0.5;" width="93" x="423" y="565.5313"/><text fill="#000000" font-family="sans-serif" font-size="14" lengthAdjust="spacing" textLength="79" x="430" y="587.0645">EventQueue</text><rect fill="#EEEEFF" height="31.6094" rx="2.5" ry="2.5" style="stroke:#333333;stroke-width:0.5;" width="115" x="601" y="50"/><text fill="#000000" font-family="sans-serif" font-size="14" lengthAdjust="spacing" textLength="101" x="608" y="71.5332">ProcessingTask</text><rect fill="#EEEEFF" height="31.6094" rx="2.5" ry="2.5" style="stroke:#333333;stroke-width:0.5;" width="115" x="601" y="565.5313"/><text fill="#000000" font-family="sans-serif" font-size="14" lengthAdjust="spacing" textLength="101" x="608" y="587.0645">ProcessingTask</text><rect fill="#EEEEFF" height="31.6094" rx="2.5" ry="2.5" style="stroke:#333333;stroke-width:0.5;" width="122" x="726" y="50"/><text fill="#000000" font-family="sans-serif" font-size="14" lengthAdjust="spacing" textLength="108" x="733" y="71.5332">SystemController</text><rect fill="#EEEEFF" height="31.6094" rx="2.5" ry="2.5" style="stroke:#333333;stroke-width:0.5;" width="122" x="726" y="565.5313"/><text fill="#000000" font-family="sans-serif" font-size="14" lengthAdjust="spacing" textLength="108" x="733" y="587.0645">SystemController</text><rect fill="#EEEEFF" height="31.6094" rx="2.5" ry="2.5" style="stroke:#333333;stroke-width:0.5;" width="114" x="975" y="50"/><text fill="#000000" font-family="sans-serif" font-size="14" lengthAdjust="spacing" textLength="100" x="982" y="71.5332">MessageRouter</text><rect fill="#EEEEFF" height="31.6094" rx="2.5" ry="2.5" style="stroke:#333333;stroke-width:0.5;" width="114" x="975" y="565.5313"/><text fill="#000000" font-family="sans-serif" font-size="14" lengthAdjust="spacing" textLength="100" x="982" y="587.0645">MessageRouter</text><rect fill="#EEEEFF" height="31.6094" rx="2.5" ry="2.5" style="stroke:#333333;stroke-width:0.5;" width="87" x="1166.5" y="50"/><text fill="#000000" font-family="sans-serif" font-size="14" lengthAdjust="spacing" textLength="73" x="1173.5" y="71.5332">RouterUiCb</text><rect fill="#EEEEFF" height="31.6094" rx="2.5" ry="2.5" style="stroke:#333333;stroke-width:0.5;" width="87" x="1166.5" y="565.5313"/><text fill="#000000" font-family="sans-serif" font-size="14" lengthAdjust="spacing" textLength="73" x="1173.5" y="587.0645">RouterUiCb</text><rect fill="#EEEEFF" height="31.6094" rx="2.5" ry="2.5" style="stroke:#333333;stroke-width:0.5;" width="88" x="1332" y="50"/><text fill="#000000" font-family="sans-serif" font-size="14" lengthAdjust="spacing" textLength="74" x="1339" y="71.5332">UiController</text><rect fill="#EEEEFF" height="31.6094" rx="2.5" ry="2.5" style="stroke:#333333;stroke-width:0.5;" width="88" x="1332" y="565.5313"/><text fill="#000000" font-family="sans-serif" font-size="14" lengthAdjust="spacing" textLength="74" x="1339" y="587.0645">UiController</text><rect fill="#EEEEFF" height="31.6094" rx="2.5" ry="2.5" style="stroke:#333333;stroke-width:0.5;" width="74" x="1430" y="50"/><text fill="#000000" font-family="sans-serif" font-size="14" lengthAdjust="spacing" textLength="60" x="1437" y="71.5332">IOModule</text><rect fill="#EEEEFF" height="31.6094" rx="2.5" ry="2.5" style="stroke:#333333;stroke-width:0.5;" width="74" x="1430" y="565.5313"/><text fill="#000000" font-family="sans-serif" font-size="14" lengthAdjust="spacing" textLength="60" x="1437" y="587.0645">IOModule</text><rect fill="#FFFFFF" height="73.7031" style="stroke:#181818;stroke-width:1.0;" width="10" x="228.5" y="145.3125"/><rect fill="#FFFFFF" height="60.7031" style="stroke:#181818;stroke-width:1.0;" width="10" x="782" y="310.0703"/><rect fill="#FFFFFF" height="30.3516" style="stroke:#181818;stroke-width:1.0;" width="10" x="1205" y="401.125"/><rect fill="#FFFFFF" height="79.7031" style="stroke:#181818;stroke-width:1.0;" width="10" x="1462" y="461.8281"/><polygon fill="#444444" points="117,110.9609,127,114.9609,117,118.9609,121,114.9609" style="stroke:#444444;stroke-width:1.0;"/><line style="stroke:#444444;stroke-width:1.0;" x1="36" x2="123" y1="114.9609" y2="114.9609"/><text fill="#000000" font-family="sans-serif" font-size="13" lengthAdjust="spacing" textLength="69" x="43" y="110.1045">Frame 0x65</text><polygon fill="#444444" points="216.5,141.3125,226.5,145.3125,216.5,149.3125,220.5,145.3125" style="stroke:#444444;stroke-width:1.0;"/><line style="stroke:#444444;stroke-width:1.0;" x1="129" x2="222.5" y1="145.3125" y2="145.3125"/><text fill="#000000" font-family="sans-serif" font-size="13" lengthAdjust="spacing" textLength="73" x="136" y="140.4561">ISR callback</text><line style="stroke:#444444;stroke-width:1.0;" x1="238.5" x2="280.5" y1="175.6641" y2="175.6641"/><line style="stroke:#444444;stroke-width:1.0;" x1="280.5" x2="280.5" y1="175.6641" y2="188.6641"/><line style="stroke:#444444;stroke-width:1.0;" x1="239.5" x2="280.5" y1="188.6641" y2="188.6641"/><polygon fill="#444444" points="249.5,184.6641,239.5,188.6641,249.5,192.6641,245.5,188.6641" style="stroke:#444444;stroke-width:1.0;"/><text fill="#000000" font-family="sans-serif" font-size="13" lengthAdjust="spacing" textLength="178" x="245.5" y="170.8076">Unpack_Cluster_lecture(frame)</text><polygon fill="#444444" points="457.5,215.0156,467.5,219.0156,457.5,223.0156,461.5,219.0156" style="stroke:#444444;stroke-width:1.0;"/><line style="stroke:#444444;stroke-width:1.0;" x1="233.5" x2="463.5" y1="219.0156" y2="219.0156"/><text fill="#000000" font-family="sans-serif" font-size="13" lengthAdjust="spacing" textLength="207" x="240.5" y="214.1592">PushFromISR(Event::ClusterFrame)</text><polygon fill="#444444" points="480.5,245.3672,470.5,249.3672,480.5,253.3672,476.5,249.3672" style="stroke:#444444;stroke-width:1.0;"/><line style="stroke:#444444;stroke-width:1.0;" x1="474.5" x2="657.5" y1="249.3672" y2="249.3672"/><text fill="#000000" font-family="sans-serif" font-size="13" lengthAdjust="spacing" textLength="63" x="486.5" y="244.5107">Pop(Event)</text><polygon fill="#444444" points="646.5,275.7188,656.5,279.7188,646.5,283.7188,650.5,279.7188" style="stroke:#444444;stroke-width:1.0;"/><line style="stroke:#444444;stroke-width:1.0;stroke-dasharray:2.0,2.0;" x1="469.5" x2="652.5" y1="279.7188" y2="279.7188"/><text fill="#000000" font-family="sans-serif" font-size="13" lengthAdjust="spacing" textLength="165" x="476.5" y="274.8623">Event::ClusterFrame(cluster)</text><polygon fill="#444444" points="770,306.0703,780,310.0703,770,314.0703,774,310.0703" style="stroke:#444444;stroke-width:1.0;"/><line style="stroke:#444444;stroke-width:1.0;" x1="658.5" x2="776" y1="310.0703" y2="310.0703"/><text fill="#000000" font-family="sans-serif" font-size="13" lengthAdjust="spacing" textLength="91" x="665.5" y="305.2139">Dispatch(Event)</text><polygon fill="#444444" points="1020,336.4219,1030,340.4219,1020,344.4219,1024,340.4219" style="stroke:#444444;stroke-width:1.0;"/><line style="stroke:#444444;stroke-width:1.0;" x1="792" x2="1026" y1="340.4219" y2="340.4219"/><text fill="#000000" font-family="sans-serif" font-size="13" lengthAdjust="spacing" textLength="177" x="799" y="335.5654">PublishCluster(cluster, millis())</text><polygon fill="#444444" points="1020,366.7734,1030,370.7734,1020,374.7734,1024,370.7734" style="stroke:#444444;stroke-width:1.0;"/><line style="stroke:#444444;stroke-width:1.0;" x1="787" x2="1026" y1="370.7734" y2="370.7734"/><text fill="#000000" font-family="sans-serif" font-size="13" lengthAdjust="spacing" textLength="216" x="794" y="365.917">PublishSystemStatus(status, millis())</text><polygon fill="#444444" points="1193,397.125,1203,401.125,1193,405.125,1197,401.125" style="stroke:#444444;stroke-width:1.0;"/><line style="stroke:#444444;stroke-width:1.0;" x1="1032" x2="1199" y1="401.125" y2="401.125"/><text fill="#000000" font-family="sans-serif" font-size="13" lengthAdjust="spacing" textLength="154" x="1039" y="396.2686">Invoke callback(cluster, ts)</text><polygon fill="#444444" points="1364,427.4766,1374,431.4766,1364,435.4766,1368,431.4766" style="stroke:#444444;stroke-width:1.0;"/><line style="stroke:#444444;stroke-width:1.0;" x1="1210" x2="1370" y1="431.4766" y2="431.4766"/><text fill="#000000" font-family="sans-serif" font-size="13" lengthAdjust="spacing" textLength="137" x="1217" y="426.6201">EnqueueUiData(UiData)</text><polygon fill="#444444" points="1450,457.8281,1460,461.8281,1450,465.8281,1454,461.8281" style="stroke:#444444;stroke-width:1.0;"/><line style="stroke:#444444;stroke-width:1.0;" x1="1032" x2="1456" y1="461.8281" y2="461.8281"/><text fill="#000000" font-family="sans-serif" font-size="13" lengthAdjust="spacing" textLength="130" x="1039" y="456.9717">ClusterCb_(cluster, ts)</text><line style="stroke:#444444;stroke-width:1.0;" x1="1472" x2="1514" y1="492.1797" y2="492.1797"/><line style="stroke:#444444;stroke-width:1.0;" x1="1514" x2="1514" y1="492.1797" y2="505.1797"/><line style="stroke:#444444;stroke-width:1.0;" x1="1473" x2="1514" y1="505.1797" y2="505.1797"/><polygon fill="#444444" points="1483,501.1797,1473,505.1797,1483,509.1797,1479,505.1797" style="stroke:#444444;stroke-width:1.0;"/><text fill="#000000" font-family="sans-serif" font-size="13" lengthAdjust="spacing" textLength="150" x="1479" y="487.3232">OnCluster_() / phaseSync</text><line style="stroke:#444444;stroke-width:1.0;" x1="1472" x2="1514" y1="540.5313" y2="540.5313"/><line style="stroke:#444444;stroke-width:1.0;" x1="1514" x2="1514" y1="540.5313" y2="553.5313"/><line style="stroke:#444444;stroke-width:1.0;" x1="1467" x2="1514" y1="553.5313" y2="553.5313"/><polygon fill="#444444" points="1477,549.5313,1467,553.5313,1477,557.5313,1473,553.5313" style="stroke:#444444;stroke-width:1.0;"/><text fill="#000000" font-family="sans-serif" font-size="13" lengthAdjust="spacing" textLength="167" x="1479" y="535.6748">Update(nowMs) toggles blink</text><!--SRC=[TPB1Zjem48RlUGfhzv98NUsgq1uuL2e1f1me2sbkbT3W3635sAdjGFVjEx439AlTIs9xld_6yuzj9LGD1axC7g7K5w4ER0_IOcHl4J16Nr8jjM6Fu_6u5w6l4rpKeDnKcn9DHur6eqyeuDN1w4QL7OcuZoBWZjOFwSzVRDhO1mQMqNfQv55F6k8p8yve_gWORJtwkkMWaYl_yeu6bIc7PWyS0q87-o4pFwDowmQRGCpNm_2hqHoj9Kz-WwqyqYw6KFvc7PvIhPpHKgBnM9uEeIMbWGDkTECwOhaP4Y5KY7JdmqMMJeS0XOOrYcm8PAkbBXiPMibMKHGyP4y_l3jimXOq3MGl_xv_Y_n96sbDeL2MRnW7ANSqe7OUuWmEEyi2quCB6Yoljgbig7MpbSXTOp3Uj-cJEpvV4_lQsEF2w1CLYBtTaqcdMmIyn7VbejRZkrxNGPT4j7-YOn-Ui0-InJniabkAF2Lo9cmDZX-lUMxrQ4e44BRS-9lkfB37Bk4rrnTs4fBEuoJv00x3pnsuniRM__g2NczKAo8bwTlHjewhiwxmPlgzdhEzA_ftu1LUsVQj_hOFjX0pS127tw2IbtIriXKfkexItVQJ8lHO2BpYAtKTR9omPrOVmMB-fdYVAUgIXB7IbwLDcDE7WqJBo19LzQz2YVy3]--></g></svg>