<?xml version="1.0" encoding="us-ascii" standalone="no"?><svg xmlns="http://www.w3.org/2000/svg" xmlns:xlink="http://www.w3.org/1999/xlink" contentStyleType="text/css" height="768px" preserveAspectRatio="none" style="width:2020px;height:768px;background:#FFFFFF;" version="1.1" viewBox="0 0 2020 768" width="2020px" zoomAndPan="magnify"><defs/><g><!--class MessageRouter--><g id="elem_MessageRouter"><rect codeLine="7" fill="#F7F7FF" height="255.3125" id="MessageRouter" rx="2.5" ry="2.5" style="stroke:#333333;stroke-width:0.5;" width="315" x="1014" y="506"/><ellipse cx="1117.25" cy="522" fill="#ADD1B2" rx="11" ry="11" style="stroke:#181818;stroke-width:1.0;"/><path d="M1120.0156,517.875 Q1120.1719,517.6563 1120.3594,517.5469 Q1120.5469,517.4375 1120.7656,517.4375 Q1121.1406,517.4375 1121.375,517.6953 Q1121.6094,517.9531 1121.6094,518.5625 L1121.6094,520.0156 Q1121.6094,520.625 1121.375,520.8906 Q1121.1406,521.1563 1120.7656,521.1563 Q1120.4219,521.1563 1120.2188,520.9531 Q1120.0156,520.7656 1119.9063,520.25 Q1119.8594,519.8906 1119.6719,519.7031 Q1119.3438,519.3281 1118.7344,519.1094 Q1118.125,518.8906 1117.5,518.8906 Q1116.7344,518.8906 1116.1016,519.2188 Q1115.4688,519.5469 1114.9766,520.2969 Q1114.4844,521.0469 1114.4844,522.0781 L1114.4844,523.1719 Q1114.4844,524.4063 1115.375,525.2266 Q1116.2656,526.0469 1117.8594,526.0469 Q1118.7969,526.0469 1119.4531,525.7969 Q1119.8438,525.6406 1120.2656,525.2031 Q1120.5313,524.9375 1120.6797,524.8594 Q1120.8281,524.7813 1121.0313,524.7813 Q1121.3594,524.7813 1121.6172,525.0391 Q1121.875,525.2969 1121.875,525.6406 Q1121.875,525.9844 1121.5313,526.3906 Q1121.0313,526.9688 1120.2344,527.2969 Q1119.1563,527.75 1117.8594,527.75 Q1116.3438,527.75 1115.1406,527.125 Q1114.1563,526.625 1113.4688,525.5547 Q1112.7813,524.4844 1112.7813,523.2031 L1112.7813,522.0469 Q1112.7813,520.7188 1113.3984,519.5703 Q1114.0156,518.4219 1115.1094,517.8047 Q1116.2031,517.1875 1117.4375,517.1875 Q1118.1719,517.1875 1118.8203,517.3516 Q1119.4688,517.5156 1120.0156,517.875 Z " fill="#000000"/><text fill="#000000" font-family="sans-serif" font-size="14" lengthAdjust="spacing" textLength="100" x="1137.75" y="527.7285">MessageRouter</text><line style="stroke:#333333;stroke-width:0.5;" x1="1015" x2="1328" y1="538" y2="538"/><text fill="#000000" font-family="sans-serif" font-size="14" lengthAdjust="spacing" textLength="185" x="1020" y="556.5332">+bool Init(maxClusterSubs=8)</text><text fill="#000000" font-family="sans-serif" font-size="14" lengthAdjust="spacing" textLength="197" x="1020" y="574.1426">+bool SubscribeCluster(cb, ctx)</text><text fill="#000000" font-family="sans-serif" font-size="14" lengthAdjust="spacing" textLength="211" x="1020" y="591.752">+void UnsubscribeCluster(cb, ctx)</text><text fill="#000000" font-family="sans-serif" font-size="14" lengthAdjust="spacing" textLength="233" x="1020" y="609.3613">+void PublishCluster(Cluster_t, tsMs)</text><text fill="#000000" font-family="sans-serif" font-size="14" lengthAdjust="spacing" textLength="201" x="1020" y="626.9707">+bool GetLastCluster(out, tsMs)</text><text fill="#000000" font-family="sans-serif" font-size="14" lengthAdjust="spacing" textLength="179" x="1020" y="644.5801">+bool GetLastSeenMs(tsMs)</text><text fill="#000000" font-family="sans-serif" font-size="14" lengthAdjust="spacing" textLength="238" x="1020" y="662.1895">+bool SubscribeSystemStatus(cb, ctx)</text><text fill="#000000" font-family="sans-serif" font-size="14" lengthAdjust="spacing" textLength="303" x="1020" y="679.7988">+void PublishSystemStatus(SystemStatus, tsMs)</text><text fill="#000000" font-family="sans-serif" font-size="14" lengthAdjust="spacing" textLength="242" x="1020" y="697.4082">+bool GetLastSystemStatus(out, tsMs)</text><text fill="#000000" font-family="sans-serif" font-size="14" lengthAdjust="spacing" textLength="141" x="1020" y="736.627">-Cluster_t lastCluster_</text><text fill="#000000" font-family="sans-serif" font-size="14" lengthAdjust="spacing" textLength="165" x="1020" y="754.2363">-SystemStatus lastStatus_</text><line style="stroke:#333333;stroke-width:1.0;" x1="1015" x2="1132" y1="713.2891" y2="713.2891"/><text fill="#000000" font-family="sans-serif" font-size="14" lengthAdjust="spacing" textLength="79" x="1132" y="718.5176">Sticky cache</text><line style="stroke:#333333;stroke-width:1.0;" x1="1211" x2="1328" y1="713.2891" y2="713.2891"/></g><!--class EventQueue--><g id="elem_EventQueue"><rect codeLine="22" fill="#F7F7FF" height="136.0469" id="EventQueue" rx="2.5" ry="2.5" style="stroke:#333333;stroke-width:0.5;" width="212" x="1796.5" y="565.5"/><ellipse cx="1858.75" cy="581.5" fill="#ADD1B2" rx="11" ry="11" style="stroke:#181818;stroke-width:1.0;"/><path d="M1861.5156,577.375 Q1861.6719,577.1563 1861.8594,577.0469 Q1862.0469,576.9375 1862.2656,576.9375 Q1862.6406,576.9375 1862.875,577.1953 Q1863.1094,577.4531 1863.1094,578.0625 L1863.1094,579.5156 Q1863.1094,580.125 1862.875,580.3906 Q1862.6406,580.6563 1862.2656,580.6563 Q1861.9219,580.6563 1861.7188,580.4531 Q1861.5156,580.2656 1861.4063,579.75 Q1861.3594,579.3906 1861.1719,579.2031 Q1860.8438,578.8281 1860.2344,578.6094 Q1859.625,578.3906 1859,578.3906 Q1858.2344,578.3906 1857.6016,578.7188 Q1856.9688,579.0469 1856.4766,579.7969 Q1855.9844,580.5469 1855.9844,581.5781 L1855.9844,582.6719 Q1855.9844,583.9063 1856.875,584.7266 Q1857.7656,585.5469 1859.3594,585.5469 Q1860.2969,585.5469 1860.9531,585.2969 Q1861.3438,585.1406 1861.7656,584.7031 Q1862.0313,584.4375 1862.1797,584.3594 Q1862.3281,584.2813 1862.5313,584.2813 Q1862.8594,584.2813 1863.1172,584.5391 Q1863.375,584.7969 1863.375,585.1406 Q1863.375,585.4844 1863.0313,585.8906 Q1862.5313,586.4688 1861.7344,586.7969 Q1860.6563,587.25 1859.3594,587.25 Q1857.8438,587.25 1856.6406,586.625 Q1855.6563,586.125 1854.9688,585.0547 Q1854.2813,583.9844 1854.2813,582.7031 L1854.2813,581.5469 Q1854.2813,580.2188 1854.8984,579.0703 Q1855.5156,577.9219 1856.6094,577.3047 Q1857.7031,576.6875 1858.9375,576.6875 Q1859.6719,576.6875 1860.3203,576.8516 Q1860.9688,577.0156 1861.5156,577.375 Z " fill="#000000"/><text fill="#000000" font-family="sans-serif" font-size="14" lengthAdjust="spacing" textLength="79" x="1879.25" y="587.2285">EventQueue</text><line style="stroke:#333333;stroke-width:0.5;" x1="1797.5" x2="2007.5" y1="597.5" y2="597.5"/><text fill="#000000" font-family="sans-serif" font-size="14" lengthAdjust="spacing" textLength="200" x="1802.5" y="616.0332">-QueueHandle_t queueHandle_</text><line style="stroke:#333333;stroke-width:0.5;" x1="1797.5" x2="2007.5" y1="623.1094" y2="623.1094"/><text fill="#000000" font-family="sans-serif" font-size="14" lengthAdjust="spacing" textLength="175" x="1802.5" y="641.6426">+bool Init(queueLength=10)</text><text fill="#000000" font-family="sans-serif" font-size="14" lengthAdjust="spacing" textLength="117" x="1802.5" y="659.252">+bool Push(Event)</text><text fill="#000000" font-family="sans-serif" font-size="14" lengthAdjust="spacing" textLength="172" x="1802.5" y="676.8613">+bool PushFromISR(Event)</text><text fill="#000000" font-family="sans-serif" font-size="14" lengthAdjust="spacing" textLength="180" x="1802.5" y="694.4707">+bool Pop(Event, timeout=0)</text></g><!--class CanInterface--><g id="elem_CanInterface"><rect codeLine="30" fill="#F7F7FF" height="100.8281" id="CanInterface" rx="2.5" ry="2.5" style="stroke:#333333;stroke-width:0.5;" width="287" x="1599" y="283"/><ellipse cx="1697.75" cy="299" fill="#ADD1B2" rx="11" ry="11" style="stroke:#181818;stroke-width:1.0;"/><path d="M1700.5156,294.875 Q1700.6719,294.6563 1700.8594,294.5469 Q1701.0469,294.4375 1701.2656,294.4375 Q1701.6406,294.4375 1701.875,294.6953 Q1702.1094,294.9531 1702.1094,295.5625 L1702.1094,297.0156 Q1702.1094,297.625 1701.875,297.8906 Q1701.6406,298.1563 1701.2656,298.1563 Q1700.9219,298.1563 1700.7188,297.9531 Q1700.5156,297.7656 1700.4063,297.25 Q1700.3594,296.8906 1700.1719,296.7031 Q1699.8438,296.3281 1699.2344,296.1094 Q1698.625,295.8906 1698,295.8906 Q1697.2344,295.8906 1696.6016,296.2188 Q1695.9688,296.5469 1695.4766,297.2969 Q1694.9844,298.0469 1694.9844,299.0781 L1694.9844,300.1719 Q1694.9844,301.4063 1695.875,302.2266 Q1696.7656,303.0469 1698.3594,303.0469 Q1699.2969,303.0469 1699.9531,302.7969 Q1700.3438,302.6406 1700.7656,302.2031 Q1701.0313,301.9375 1701.1797,301.8594 Q1701.3281,301.7813 1701.5313,301.7813 Q1701.8594,301.7813 1702.1172,302.0391 Q1702.375,302.2969 1702.375,302.6406 Q1702.375,302.9844 1702.0313,303.3906 Q1701.5313,303.9688 1700.7344,304.2969 Q1699.6563,304.75 1698.3594,304.75 Q1696.8438,304.75 1695.6406,304.125 Q1694.6563,303.625 1693.9688,302.5547 Q1693.2813,301.4844 1693.2813,300.2031 L1693.2813,299.0469 Q1693.2813,297.7188 1693.8984,296.5703 Q1694.5156,295.4219 1695.6094,294.8047 Q1696.7031,294.1875 1697.9375,294.1875 Q1698.6719,294.1875 1699.3203,294.3516 Q1699.9688,294.5156 1700.5156,294.875 Z " fill="#000000"/><text fill="#000000" font-family="sans-serif" font-size="14" lengthAdjust="spacing" textLength="81" x="1718.25" y="304.7285">CanInterface</text><line style="stroke:#333333;stroke-width:0.5;" x1="1600" x2="1885" y1="315" y2="315"/><text fill="#000000" font-family="sans-serif" font-size="14" lengthAdjust="spacing" textLength="234" x="1605" y="333.5332">-static EventQueue* eventQueuePtr_</text><line style="stroke:#333333;stroke-width:0.5;" x1="1600" x2="1885" y1="340.6094" y2="340.6094"/><text fill="#000000" font-family="sans-serif" font-size="14" lengthAdjust="spacing" textLength="155" x="1605" y="359.1426">+bool Init(EventQueue&amp;)</text><text fill="#000000" font-family="sans-serif" font-size="14" lengthAdjust="spacing" textLength="275" x="1605" y="376.752">+static void CanMsgHandler(CAN_FRAME*)</text></g><!--class UiController--><g id="elem_UiController"><rect codeLine="36" fill="#F7F7FF" height="188.875" id="UiController" rx="2.5" ry="2.5" style="stroke:#333333;stroke-width:0.5;" width="414" x="284.5" y="239"/><ellipse cx="450.25" cy="255" fill="#ADD1B2" rx="11" ry="11" style="stroke:#181818;stroke-width:1.0;"/><path d="M453.0156,250.875 Q453.1719,250.6563 453.3594,250.5469 Q453.5469,250.4375 453.7656,250.4375 Q454.1406,250.4375 454.375,250.6953 Q454.6094,250.9531 454.6094,251.5625 L454.6094,253.0156 Q454.6094,253.625 454.375,253.8906 Q454.1406,254.1563 453.7656,254.1563 Q453.4219,254.1563 453.2188,253.9531 Q453.0156,253.7656 452.9063,253.25 Q452.8594,252.8906 452.6719,252.7031 Q452.3438,252.3281 451.7344,252.1094 Q451.125,251.8906 450.5,251.8906 Q449.7344,251.8906 449.1016,252.2188 Q448.4688,252.5469 447.9766,253.2969 Q447.4844,254.0469 447.4844,255.0781 L447.4844,256.1719 Q447.4844,257.4063 448.375,258.2266 Q449.2656,259.0469 450.8594,259.0469 Q451.7969,259.0469 452.4531,258.7969 Q452.8438,258.6406 453.2656,258.2031 Q453.5313,257.9375 453.6797,257.8594 Q453.8281,257.7813 454.0313,257.7813 Q454.3594,257.7813 454.6172,258.0391 Q454.875,258.2969 454.875,258.6406 Q454.875,258.9844 454.5313,259.3906 Q454.0313,259.9688 453.2344,260.2969 Q452.1563,260.75 450.8594,260.75 Q449.3438,260.75 448.1406,260.125 Q447.1563,259.625 446.4688,258.5547 Q445.7813,257.4844 445.7813,256.2031 L445.7813,255.0469 Q445.7813,253.7188 446.3984,252.5703 Q447.0156,251.4219 448.1094,250.8047 Q449.2031,250.1875 450.4375,250.1875 Q451.1719,250.1875 451.8203,250.3516 Q452.4688,250.5156 453.0156,250.875 Z " fill="#000000"/><text fill="#000000" font-family="sans-serif" font-size="14" lengthAdjust="spacing" textLength="74" x="470.75" y="260.7285">UiController</text><line style="stroke:#333333;stroke-width:0.5;" x1="285.5" x2="697.5" y1="271" y2="271"/><line style="stroke:#333333;stroke-width:0.5;" x1="285.5" x2="697.5" y1="279" y2="279"/><text fill="#000000" font-family="sans-serif" font-size="14" lengthAdjust="spacing" textLength="67" x="290.5" y="297.5332">+bool Init()</text><text fill="#000000" font-family="sans-serif" font-size="14" lengthAdjust="spacing" textLength="402" x="290.5" y="315.1426">+bool StartTask(dataQLen=1, msgQLen=10, prio=2, stack=20k)</text><text fill="#000000" font-family="sans-serif" font-size="14" lengthAdjust="spacing" textLength="190" x="290.5" y="332.752">+bool EnqueueUiData(UiData)</text><text fill="#000000" font-family="sans-serif" font-size="14" lengthAdjust="spacing" textLength="232" x="290.5" y="350.3613">+bool EnqueueMessage(UiMessage)</text><text fill="#000000" font-family="sans-serif" font-size="14" lengthAdjust="spacing" textLength="185" x="290.5" y="367.9707">+void ApplyCluster(Cluster_t)</text><text fill="#000000" font-family="sans-serif" font-size="14" lengthAdjust="spacing" textLength="145" x="290.5" y="385.5801">+void ShowDegraded()</text><text fill="#000000" font-family="sans-serif" font-size="14" lengthAdjust="spacing" textLength="114" x="290.5" y="403.1895">+void ShowFault()</text><text fill="#000000" font-family="sans-serif" font-size="14" lengthAdjust="spacing" textLength="138" x="290.5" y="420.7988">+void ServiceTimers()</text></g><!--class HealthMonitor--><g id="elem_HealthMonitor"><rect codeLine="47" fill="#F7F7FF" height="118.4375" id="HealthMonitor" rx="2.5" ry="2.5" style="stroke:#333333;stroke-width:0.5;" width="395" x="734" y="274.5"/><ellipse cx="883.75" cy="290.5" fill="#ADD1B2" rx="11" ry="11" style="stroke:#181818;stroke-width:1.0;"/><path d="M886.5156,286.375 Q886.6719,286.1563 886.8594,286.0469 Q887.0469,285.9375 887.2656,285.9375 Q887.6406,285.9375 887.875,286.1953 Q888.1094,286.4531 888.1094,287.0625 L888.1094,288.5156 Q888.1094,289.125 887.875,289.3906 Q887.6406,289.6563 887.2656,289.6563 Q886.9219,289.6563 886.7188,289.4531 Q886.5156,289.2656 886.4063,288.75 Q886.3594,288.3906 886.1719,288.2031 Q885.8438,287.8281 885.2344,287.6094 Q884.625,287.3906 884,287.3906 Q883.2344,287.3906 882.6016,287.7188 Q881.9688,288.0469 881.4766,288.7969 Q880.9844,289.5469 880.9844,290.5781 L880.9844,291.6719 Q880.9844,292.9063 881.875,293.7266 Q882.7656,294.5469 884.3594,294.5469 Q885.2969,294.5469 885.9531,294.2969 Q886.3438,294.1406 886.7656,293.7031 Q887.0313,293.4375 887.1797,293.3594 Q887.3281,293.2813 887.5313,293.2813 Q887.8594,293.2813 888.1172,293.5391 Q888.375,293.7969 888.375,294.1406 Q888.375,294.4844 888.0313,294.8906 Q887.5313,295.4688 886.7344,295.7969 Q885.6563,296.25 884.3594,296.25 Q882.8438,296.25 881.6406,295.625 Q880.6563,295.125 879.9688,294.0547 Q879.2813,292.9844 879.2813,291.7031 L879.2813,290.5469 Q879.2813,289.2188 879.8984,288.0703 Q880.5156,286.9219 881.6094,286.3047 Q882.7031,285.6875 883.9375,285.6875 Q884.6719,285.6875 885.3203,285.8516 Q885.9688,286.0156 886.5156,286.375 Z " fill="#000000"/><text fill="#000000" font-family="sans-serif" font-size="14" lengthAdjust="spacing" textLength="87" x="904.25" y="296.2285">HealthMonitor</text><line style="stroke:#333333;stroke-width:0.5;" x1="735" x2="1128" y1="306.5" y2="306.5"/><text fill="#000000" font-family="sans-serif" font-size="14" lengthAdjust="spacing" textLength="106" x="740" y="325.0332">-bool inTimeout_</text><line style="stroke:#333333;stroke-width:0.5;" x1="735" x2="1128" y1="332.1094" y2="332.1094"/><text fill="#000000" font-family="sans-serif" font-size="14" lengthAdjust="spacing" textLength="383" x="740" y="350.6426">+bool CheckTimeout(EventQueue&amp;, const MessageRouter&amp;)</text><text fill="#000000" font-family="sans-serif" font-size="14" lengthAdjust="spacing" textLength="85" x="740" y="368.252">+void Reset()</text><text fill="#000000" font-family="sans-serif" font-size="14" lengthAdjust="spacing" textLength="202" x="740" y="385.8613">+void SetTimeoutMs(timeoutMs)</text></g><!--class IOModule--><g id="elem_IOModule"><rect codeLine="54" fill="#F7F7FF" height="153.6563" id="IOModule" rx="2.5" ry="2.5" style="stroke:#333333;stroke-width:0.5;" width="247" x="1164" y="256.5"/><ellipse cx="1253.25" cy="272.5" fill="#ADD1B2" rx="11" ry="11" style="stroke:#181818;stroke-width:1.0;"/><path d="M1256.0156,268.375 Q1256.1719,268.1563 1256.3594,268.0469 Q1256.5469,267.9375 1256.7656,267.9375 Q1257.1406,267.9375 1257.375,268.1953 Q1257.6094,268.4531 1257.6094,269.0625 L1257.6094,270.5156 Q1257.6094,271.125 1257.375,271.3906 Q1257.1406,271.6563 1256.7656,271.6563 Q1256.4219,271.6563 1256.2188,271.4531 Q1256.0156,271.2656 1255.9063,270.75 Q1255.8594,270.3906 1255.6719,270.2031 Q1255.3438,269.8281 1254.7344,269.6094 Q1254.125,269.3906 1253.5,269.3906 Q1252.7344,269.3906 1252.1016,269.7188 Q1251.4688,270.0469 1250.9766,270.7969 Q1250.4844,271.5469 1250.4844,272.5781 L1250.4844,273.6719 Q1250.4844,274.9063 1251.375,275.7266 Q1252.2656,276.5469 1253.8594,276.5469 Q1254.7969,276.5469 1255.4531,276.2969 Q1255.8438,276.1406 1256.2656,275.7031 Q1256.5313,275.4375 1256.6797,275.3594 Q1256.8281,275.2813 1257.0313,275.2813 Q1257.3594,275.2813 1257.6172,275.5391 Q1257.875,275.7969 1257.875,276.1406 Q1257.875,276.4844 1257.5313,276.8906 Q1257.0313,277.4688 1256.2344,277.7969 Q1255.1563,278.25 1253.8594,278.25 Q1252.3438,278.25 1251.1406,277.625 Q1250.1563,277.125 1249.4688,276.0547 Q1248.7813,274.9844 1248.7813,273.7031 L1248.7813,272.5469 Q1248.7813,271.2188 1249.3984,270.0703 Q1250.0156,268.9219 1251.1094,268.3047 Q1252.2031,267.6875 1253.4375,267.6875 Q1254.1719,267.6875 1254.8203,267.8516 Q1255.4688,268.0156 1256.0156,268.375 Z " fill="#000000"/><text fill="#000000" font-family="sans-serif" font-size="14" lengthAdjust="spacing" textLength="60" x="1273.75" y="278.2285">IOModule</text><line style="stroke:#333333;stroke-width:0.5;" x1="1165" x2="1410" y1="288.5" y2="288.5"/><line style="stroke:#333333;stroke-width:0.5;" x1="1165" x2="1410" y1="296.5" y2="296.5"/><text fill="#000000" font-family="sans-serif" font-size="14" lengthAdjust="spacing" textLength="235" x="1170" y="315.0332">+bool Init(leftPin, rightPin, activeHigh)</text><text fill="#000000" font-family="sans-serif" font-size="14" lengthAdjust="spacing" textLength="188" x="1170" y="332.6426">+bool Start(MessageRouter&amp;)</text><text fill="#000000" font-family="sans-serif" font-size="14" lengthAdjust="spacing" textLength="186" x="1170" y="350.252">+void Stop(MessageRouter&amp;)</text><text fill="#000000" font-family="sans-serif" font-size="14" lengthAdjust="spacing" textLength="136" x="1170" y="367.8613">+void Update(nowMs)</text><text fill="#000000" font-family="sans-serif" font-size="14" lengthAdjust="spacing" textLength="211" x="1170" y="385.4707">-void OnCluster_(Cluster_t, tsMs)</text><text fill="#000000" font-family="sans-serif" font-size="14" lengthAdjust="spacing" textLength="235" x="1170" y="403.0801">-void OnStatus_(SystemStatus, tsMs)</text></g><!--class SystemController--><g id="elem_SystemController"><rect codeLine="63" fill="#F7F7FF" height="136.0469" id="SystemController" rx="2.5" ry="2.5" style="stroke:#333333;stroke-width:0.5;" width="207" x="1378" y="16"/><ellipse cx="1423.25" cy="32" fill="#ADD1B2" rx="11" ry="11" style="stroke:#181818;stroke-width:1.0;"/><path d="M1426.0156,27.875 Q1426.1719,27.6563 1426.3594,27.5469 Q1426.5469,27.4375 1426.7656,27.4375 Q1427.1406,27.4375 1427.375,27.6953 Q1427.6094,27.9531 1427.6094,28.5625 L1427.6094,30.0156 Q1427.6094,30.625 1427.375,30.8906 Q1427.1406,31.1563 1426.7656,31.1563 Q1426.4219,31.1563 1426.2188,30.9531 Q1426.0156,30.7656 1425.9063,30.25 Q1425.8594,29.8906 1425.6719,29.7031 Q1425.3438,29.3281 1424.7344,29.1094 Q1424.125,28.8906 1423.5,28.8906 Q1422.7344,28.8906 1422.1016,29.2188 Q1421.4688,29.5469 1420.9766,30.2969 Q1420.4844,31.0469 1420.4844,32.0781 L1420.4844,33.1719 Q1420.4844,34.4063 1421.375,35.2266 Q1422.2656,36.0469 1423.8594,36.0469 Q1424.7969,36.0469 1425.4531,35.7969 Q1425.8438,35.6406 1426.2656,35.2031 Q1426.5313,34.9375 1426.6797,34.8594 Q1426.8281,34.7813 1427.0313,34.7813 Q1427.3594,34.7813 1427.6172,35.0391 Q1427.875,35.2969 1427.875,35.6406 Q1427.875,35.9844 1427.5313,36.3906 Q1427.0313,36.9688 1426.2344,37.2969 Q1425.1563,37.75 1423.8594,37.75 Q1422.3438,37.75 1421.1406,37.125 Q1420.1563,36.625 1419.4688,35.5547 Q1418.7813,34.4844 1418.7813,33.2031 L1418.7813,32.0469 Q1418.7813,30.7188 1419.3984,29.5703 Q1420.0156,28.4219 1421.1094,27.8047 Q1422.2031,27.1875 1423.4375,27.1875 Q1424.1719,27.1875 1424.8203,27.3516 Q1425.4688,27.5156 1426.0156,27.875 Z " fill="#000000"/><text fill="#000000" font-family="sans-serif" font-size="14" lengthAdjust="spacing" textLength="108" x="1443.75" y="37.7285">SystemController</text><line style="stroke:#333333;stroke-width:0.5;" x1="1379" x2="1584" y1="48" y2="48"/><line style="stroke:#333333;stroke-width:0.5;" x1="1379" x2="1584" y1="56" y2="56"/><text fill="#000000" font-family="sans-serif" font-size="14" lengthAdjust="spacing" textLength="168" x="1384" y="74.5332">+bool RunBootSequence()</text><text fill="#000000" font-family="sans-serif" font-size="14" lengthAdjust="spacing" textLength="186" x="1384" y="92.1426">+void Dispatch(const Event&amp;)</text><text fill="#000000" font-family="sans-serif" font-size="14" lengthAdjust="spacing" textLength="93" x="1384" y="109.752">+void Update()</text><text fill="#000000" font-family="sans-serif" font-size="14" lengthAdjust="spacing" textLength="195" x="1384" y="127.3613">+SystemState GetState() const</text><text fill="#000000" font-family="sans-serif" font-size="14" lengthAdjust="spacing" textLength="156" x="1384" y="144.9707">-void TransitionTo(state)</text></g><!--class SystemState--><g id="elem_SystemState"><rect codeLine="71" fill="#F7F7FF" height="153.6563" id="SystemState" rx="2.5" ry="2.5" style="stroke:#333333;stroke-width:0.5;" width="111" x="7" y="7"/><ellipse cx="22" cy="23" fill="#EB937F" rx="11" ry="11" style="stroke:#181818;stroke-width:1.0;"/><path d="M20.8594,23.7969 L20.8594,26.2969 L25.1875,26.2969 L25.1875,25.375 Q25.1875,24.7656 25.4297,24.5 Q25.6719,24.2344 26.0469,24.2344 Q26.4219,24.2344 26.6563,24.5 Q26.8906,24.7656 26.8906,25.375 L26.8906,28 L18.8906,28 Q18.2656,28 18.0078,27.7656 Q17.75,27.5313 17.75,27.1406 Q17.75,26.7656 18.0156,26.5313 Q18.2813,26.2969 18.8906,26.2969 L19.1563,26.2969 L19.1563,19.6406 L18.8906,19.6406 Q18.2656,19.6406 18.0078,19.4063 Q17.75,19.1719 17.75,18.7813 Q17.75,18.4063 18.0078,18.1719 Q18.2656,17.9375 18.8906,17.9375 L26.5156,17.9375 L26.5156,20.5313 Q26.5156,21.1406 26.2891,21.3984 Q26.0625,21.6563 25.6719,21.6563 Q25.2969,21.6563 25.0625,21.3984 Q24.8281,21.1406 24.8281,20.5313 L24.8281,19.6406 L20.8594,19.6406 L20.8594,22.0938 L22.3438,22.0938 Q22.3438,21.4375 22.4688,21.25 Q22.7344,20.8438 23.2031,20.8438 Q23.5781,20.8438 23.8125,21.1016 Q24.0469,21.3594 24.0469,21.9688 L24.0469,23.9375 Q24.0469,24.4844 23.9219,24.6719 Q23.6563,25.0625 23.2031,25.0625 Q22.7344,25.0625 22.4688,24.6563 Q22.3438,24.4688 22.3438,23.7969 L20.8594,23.7969 Z " fill="#000000"/><text fill="#000000" font-family="sans-serif" font-size="14" lengthAdjust="spacing" textLength="79" x="36" y="28.7285">SystemState</text><line style="stroke:#333333;stroke-width:0.5;" x1="8" x2="117" y1="39" y2="39"/><text fill="#000000" font-family="sans-serif" font-size="14" lengthAdjust="spacing" textLength="29" x="13" y="57.5332">Boot</text><text fill="#000000" font-family="sans-serif" font-size="14" lengthAdjust="spacing" textLength="64" x="13" y="75.1426">DisplayInit</text><text fill="#000000" font-family="sans-serif" font-size="14" lengthAdjust="spacing" textLength="99" x="13" y="92.752">WaitingForData</text><text fill="#000000" font-family="sans-serif" font-size="14" lengthAdjust="spacing" textLength="38" x="13" y="110.3613">Active</text><text fill="#000000" font-family="sans-serif" font-size="14" lengthAdjust="spacing" textLength="63" x="13" y="127.9707">Degraded</text><text fill="#000000" font-family="sans-serif" font-size="14" lengthAdjust="spacing" textLength="32" x="13" y="145.5801">Fault</text><line style="stroke:#333333;stroke-width:0.5;" x1="8" x2="117" y1="152.6563" y2="152.6563"/></g><!--class Cluster_t--><g id="elem_Cluster_t"><rect codeLine="80" fill="#F7F7FF" height="48" id="Cluster_t" rx="2.5" ry="2.5" style="stroke:#333333;stroke-width:0.5;" width="89" x="153" y="60"/><ellipse cx="168" cy="76" fill="#ADD1B2" rx="11" ry="11" style="stroke:#181818;stroke-width:1.0;"/><path d="M170.7656,71.875 Q170.9219,71.6563 171.1094,71.5469 Q171.2969,71.4375 171.5156,71.4375 Q171.8906,71.4375 172.125,71.6953 Q172.3594,71.9531 172.3594,72.5625 L172.3594,74.0156 Q172.3594,74.625 172.125,74.8906 Q171.8906,75.1563 171.5156,75.1563 Q171.1719,75.1563 170.9688,74.9531 Q170.7656,74.7656 170.6563,74.25 Q170.6094,73.8906 170.4219,73.7031 Q170.0938,73.3281 169.4844,73.1094 Q168.875,72.8906 168.25,72.8906 Q167.4844,72.8906 166.8516,73.2188 Q166.2188,73.5469 165.7266,74.2969 Q165.2344,75.0469 165.2344,76.0781 L165.2344,77.1719 Q165.2344,78.4063 166.125,79.2266 Q167.0156,80.0469 168.6094,80.0469 Q169.5469,80.0469 170.2031,79.7969 Q170.5938,79.6406 171.0156,79.2031 Q171.2813,78.9375 171.4297,78.8594 Q171.5781,78.7813 171.7813,78.7813 Q172.1094,78.7813 172.3672,79.0391 Q172.625,79.2969 172.625,79.6406 Q172.625,79.9844 172.2813,80.3906 Q171.7813,80.9688 170.9844,81.2969 Q169.9063,81.75 168.6094,81.75 Q167.0938,81.75 165.8906,81.125 Q164.9063,80.625 164.2188,79.5547 Q163.5313,78.4844 163.5313,77.2031 L163.5313,76.0469 Q163.5313,74.7188 164.1484,73.5703 Q164.7656,72.4219 165.8594,71.8047 Q166.9531,71.1875 168.1875,71.1875 Q168.9219,71.1875 169.5703,71.3516 Q170.2188,71.5156 170.7656,71.875 Z " fill="#000000"/><text fill="#000000" font-family="sans-serif" font-size="14" lengthAdjust="spacing" textLength="57" x="182" y="81.7285">Cluster_t</text><line style="stroke:#333333;stroke-width:0.5;" x1="154" x2="241" y1="92" y2="92"/><line style="stroke:#333333;stroke-width:0.5;" x1="154" x2="241" y1="100" y2="100"/></g><!--class Event--><g id="elem_Event"><rect codeLine="81" fill="#F7F7FF" height="48" id="Event" rx="2.5" ry="2.5" style="stroke:#333333;stroke-width:0.5;" width="68" x="28.5" y="309.5"/><ellipse cx="43.5" cy="325.5" fill="#ADD1B2" rx="11" ry="11" style="stroke:#181818;stroke-width:1.0;"/><path d="M46.2656,321.375 Q46.4219,321.1563 46.6094,321.0469 Q46.7969,320.9375 47.0156,320.9375 Q47.3906,320.9375 47.625,321.1953 Q47.8594,321.4531 47.8594,322.0625 L47.8594,323.5156 Q47.8594,324.125 47.625,324.3906 Q47.3906,324.6563 47.0156,324.6563 Q46.6719,324.6563 46.4688,324.4531 Q46.2656,324.2656 46.1563,323.75 Q46.1094,323.3906 45.9219,323.2031 Q45.5938,322.8281 44.9844,322.6094 Q44.375,322.3906 43.75,322.3906 Q42.9844,322.3906 42.3516,322.7188 Q41.7188,323.0469 41.2266,323.7969 Q40.7344,324.5469 40.7344,325.5781 L40.7344,326.6719 Q40.7344,327.9063 41.625,328.7266 Q42.5156,329.5469 44.1094,329.5469 Q45.0469,329.5469 45.7031,329.2969 Q46.0938,329.1406 46.5156,328.7031 Q46.7813,328.4375 46.9297,328.3594 Q47.0781,328.2813 47.2813,328.2813 Q47.6094,328.2813 47.8672,328.5391 Q48.125,328.7969 48.125,329.1406 Q48.125,329.4844 47.7813,329.8906 Q47.2813,330.4688 46.4844,330.7969 Q45.4063,331.25 44.1094,331.25 Q42.5938,331.25 41.3906,330.625 Q40.4063,330.125 39.7188,329.0547 Q39.0313,327.9844 39.0313,326.7031 L39.0313,325.5469 Q39.0313,324.2188 39.6484,323.0703 Q40.2656,321.9219 41.3594,321.3047 Q42.4531,320.6875 43.6875,320.6875 Q44.4219,320.6875 45.0703,320.8516 Q45.7188,321.0156 46.2656,321.375 Z " fill="#000000"/><text fill="#000000" font-family="sans-serif" font-size="14" lengthAdjust="spacing" textLength="36" x="57.5" y="331.2285">Event</text><line style="stroke:#333333;stroke-width:0.5;" x1="29.5" x2="95.5" y1="341.5" y2="341.5"/><line style="stroke:#333333;stroke-width:0.5;" x1="29.5" x2="95.5" y1="349.5" y2="349.5"/></g><!--class SystemStatus--><g id="elem_SystemStatus"><rect codeLine="82" fill="#F7F7FF" height="48" id="SystemStatus" rx="2.5" ry="2.5" style="stroke:#333333;stroke-width:0.5;" width="118" x="131.5" y="309.5"/><ellipse cx="146.5" cy="325.5" fill="#ADD1B2" rx="11" ry="11" style="stroke:#181818;stroke-width:1.0;"/><path d="M149.2656,321.375 Q149.4219,321.1563 149.6094,321.0469 Q149.7969,320.9375 150.0156,320.9375 Q150.3906,320.9375 150.625,321.1953 Q150.8594,321.4531 150.8594,322.0625 L150.8594,323.5156 Q150.8594,324.125 150.625,324.3906 Q150.3906,324.6563 150.0156,324.6563 Q149.6719,324.6563 149.4688,324.4531 Q149.2656,324.2656 149.1563,323.75 Q149.1094,323.3906 148.9219,323.2031 Q148.5938,322.8281 147.9844,322.6094 Q147.375,322.3906 146.75,322.3906 Q145.9844,322.3906 145.3516,322.7188 Q144.7188,323.0469 144.2266,323.7969 Q143.7344,324.5469 143.7344,325.5781 L143.7344,326.6719 Q143.7344,327.9063 144.625,328.7266 Q145.5156,329.5469 147.1094,329.5469 Q148.0469,329.5469 148.7031,329.2969 Q149.0938,329.1406 149.5156,328.7031 Q149.7813,328.4375 149.9297,328.3594 Q150.0781,328.2813 150.2813,328.2813 Q150.6094,328.2813 150.8672,328.5391 Q151.125,328.7969 151.125,329.1406 Q151.125,329.4844 150.7813,329.8906 Q150.2813,330.4688 149.4844,330.7969 Q148.4063,331.25 147.1094,331.25 Q145.5938,331.25 144.3906,330.625 Q143.4063,330.125 142.7188,329.0547 Q142.0313,327.9844 142.0313,326.7031 L142.0313,325.5469 Q142.0313,324.2188 142.6484,323.0703 Q143.2656,321.9219 144.3594,321.3047 Q145.4531,320.6875 146.6875,320.6875 Q147.4219,320.6875 148.0703,320.8516 Q148.7188,321.0156 149.2656,321.375 Z " fill="#000000"/><text fill="#000000" font-family="sans-serif" font-size="14" lengthAdjust="spacing" textLength="86" x="160.5" y="331.2285">SystemStatus</text><line style="stroke:#333333;stroke-width:0.5;" x1="132.5" x2="248.5" y1="341.5" y2="341.5"/><line style="stroke:#333333;stroke-width:0.5;" x1="132.5" x2="248.5" y1="349.5" y2="349.5"/></g><!--link CanInterface to EventQueue--><g id="link_CanInterface_EventQueue"><path codeLine="85" d="M1769.1,384.04 C1795.71,433.61 1834.0019,504.9237 1863.5519,559.9637 " fill="none" id="CanInterface-to-EventQueue" style="stroke:#444444;stroke-width:1.0;"/><polygon fill="#444444" points="1866.39,565.25,1865.657,555.4285,1864.0249,560.8447,1858.6086,559.2126,1866.39,565.25" style="stroke:#444444;stroke-width:1.0;"/><text fill="#000000" font-family="sans-serif" font-size="13" lengthAdjust="spacing" textLength="78" x="1818.5" y="472.4951">pushes Event</text></g><!--link SystemController to EventQueue--><g id="link_SystemController_EventQueue"><path codeLine="86" d="M1585.12,90.78 C1685.12,102.51 1831.62,137.24 1903.5,239 C1971.59,335.39 1948.9057,475.0906 1925.9257,559.5206 " fill="none" id="SystemController-to-EventQueue" style="stroke:#444444;stroke-width:1.0;"/><polygon fill="#444444" points="1924.35,565.31,1930.5732,557.6764,1925.6631,560.4855,1922.854,555.5754,1924.35,565.31" style="stroke:#444444;stroke-width:1.0;"/><text fill="#000000" font-family="sans-serif" font-size="13" lengthAdjust="spacing" textLength="64" x="1948.5" y="338.9951">pops Event</text></g><!--link SystemController to CanInterface--><g id="link_SystemController_CanInterface"><path codeLine="87" d="M1552.47,152.3 C1595.95,193.53 1646.2865,241.2612 1685.8165,278.7512 " fill="none" id="SystemController-to-CanInterface" style="stroke:#444444;stroke-width:1.0;"/><polygon fill="#444444" points="1690.17,282.88,1686.3923,273.7844,1686.5421,279.4393,1680.8872,279.5891,1690.17,282.88" style="stroke:#444444;stroke-width:1.0;"/><text fill="#000000" font-family="sans-serif" font-size="13" lengthAdjust="spacing" textLength="54" x="1612.5" y="205.4951">initializes</text></g><!--link SystemController to UiController--><g id="link_SystemController_UiController"><path codeLine="88" d="M1377.83,99.29 C1229.25,121.25 948.12,168.3 716.5,239 C710.63,240.79 710.4069,240.797 704.4469,242.767 " fill="none" id="SystemController-to-UiController" style="stroke:#444444;stroke-width:1.0;"/><polygon fill="#444444" points="698.75,244.65,708.5506,245.6234,703.4974,243.0808,706.0399,238.0276,698.75,244.65" style="stroke:#444444;stroke-width:1.0;"/><text fill="#000000" font-family="sans-serif" font-size="13" lengthAdjust="spacing" textLength="121" x="882.5" y="205.4951">starts UI, commands</text></g><!--link SystemController to HealthMonitor--><g id="link_SystemController_HealthMonitor"><path codeLine="89" d="M1377.73,131.7 C1287.76,172.18 1162.6614,228.4776 1065.9814,271.9876 " fill="none" id="SystemController-to-HealthMonitor" style="stroke:#444444;stroke-width:1.0;"/><polygon fill="#444444" points="1060.51,274.45,1070.3588,274.4041,1065.0695,272.398,1067.0756,267.1088,1060.51,274.45" style="stroke:#444444;stroke-width:1.0;"/><text fill="#000000" font-family="sans-serif" font-size="13" lengthAdjust="spacing" textLength="67" x="1239.5" y="205.4951">coordinates</text></g><!--link SystemController to MessageRouter--><g id="link_SystemController_MessageRouter"><path codeLine="90" d="M1485.1,152.28 C1485.96,225.1 1478.26,342.28 1428.5,428 C1404.02,470.16 1371.9266,503.2361 1333.7766,533.5661 " fill="none" id="SystemController-to-MessageRouter" style="stroke:#444444;stroke-width:1.0;"/><polygon fill="#444444" points="1329.08,537.3,1338.6142,534.8302,1332.9938,534.1884,1333.6356,528.5681,1329.08,537.3" style="stroke:#444444;stroke-width:1.0;"/><text fill="#000000" font-family="sans-serif" font-size="13" lengthAdjust="spacing" textLength="80" x="1482.5" y="338.9951">publish topics</text></g><!--link IOModule to MessageRouter--><g id="link_IOModule_MessageRouter"><path codeLine="91" d="M1257.78,410.86 C1246.53,439.74 1235.5857,467.8584 1223.0257,500.1384 " fill="none" id="IOModule-to-MessageRouter" style="stroke:#444444;stroke-width:1.0;stroke-dasharray:7.0,7.0;"/><polygon fill="#444444" points="1220.85,505.73,1227.8413,498.793,1222.6631,501.0703,1220.3858,495.8921,1220.85,505.73" style="stroke:#444444;stroke-width:1.0;"/><text fill="#000000" font-family="sans-serif" font-size="13" lengthAdjust="spacing" textLength="63" x="1236.5" y="472.4951">subscribes</text></g><!--link HealthMonitor to MessageRouter--><g id="link_HealthMonitor_MessageRouter"><path codeLine="92" d="M978.34,392.66 C1004.33,424.93 1033.9561,461.7174 1065.6461,501.0574 " fill="none" id="HealthMonitor-to-MessageRouter" style="stroke:#444444;stroke-width:1.0;stroke-dasharray:7.0,7.0;"/><polygon fill="#444444" points="1069.41,505.73,1066.8791,496.2119,1066.2734,501.8362,1060.6491,501.2305,1069.41,505.73" style="stroke:#444444;stroke-width:1.0;"/><text fill="#000000" font-family="sans-serif" font-size="13" lengthAdjust="spacing" textLength="84" x="1044.5" y="472.4951">polls last seen</text></g><!--link UiController to MessageRouter--><g id="link_UiController_MessageRouter"><path codeLine="93" d="M698.75,425.33 C800.13,469.75 914.6846,519.9516 1008.4446,561.0416 " fill="none" id="UiController-to-MessageRouter" style="stroke:#444444;stroke-width:1.0;stroke-dasharray:7.0,7.0;"/><polygon fill="#444444" points="1013.94,563.45,1007.3024,556.1738,1009.3605,561.443,1004.0913,563.5011,1013.94,563.45" style="stroke:#444444;stroke-width:1.0;"/><text fill="#000000" font-family="sans-serif" font-size="13" lengthAdjust="spacing" textLength="201" x="812.5" y="472.4951">subscribed callback in rx/main.cpp</text></g><!--SRC=[XLLjRzCm4FwUNs492GAqOx19e4b5Ajt6Agqmcavyd5pdcbXrx60xUm7ntpaxQUAG5fGFiU-UypttuhFPSbbIJGl213LcQgtcwyh2d2cPy9z0ZYFJGanEK_N0PKOsL1W8DDxuaz8fw9aIIfDd9oSd0prbsqohIgODPlCUlqq0erghXqPvUdeQHTwEBC0Oci5I8J5DVaM4l5uh9SXSSXiNz74cAeEQf5gRoOUNhThj6OO3ZJvcwn5Xzj4ZxXLFoQqq_yNSL6l1JRxJD_yxEoBMB4pdxJFOQshi3eTS3o0I0BamSL_NSasUqBn8BBMLEKYc1metXro6-1wpyPWabhFj4s6KvO1x9so39A8BwSvfmfEyibxUHRztnRgu1sc_LL31tvNwuOJN83ERJzuUToHlAfF7tgmlkzIgc2VBWKgLjGYZu0LWE1D_sDWxlQ8o5O3CVmIxZjsCohd4O3QK3VXrp9zxRmP3uupunAFTmcJrSTW4qoztbylfukALTzm0E_jN1DhrZTM1_ri-Kz9g9SImauDki5JR5JNREAMMViESJTwEI66oUday8gNcQl9kHD0rsqxU7MyxumlfGx_bvsWRrx-1jhbIg6vMNOzDor8y3TgzqoUvUZY7JDCKqhWllgILiA4Cz3rdiC8oQOFoDWrNG8ND5mh3Lc4UPZcmxQgkQbWFl0PA6jkV1CyxHqimq7TicrFSJTkjVB6y7ouRTL2Q-TU5IYinQ0i16tl3vOXedkNrYZBBx-4Azt_LB3v4CB7OjOUKjoMM6MAf7XgENlfLxfA_R-ZiCCtzspi5sj1gvTxEMrRoar8ubB0j98CWX-VSbDIoFAvJxwin9Eq5dNDm8ySlufTrpLgkAqsbuPOhkLAnkpBW6OAi2X8UuBWvIlXp50HzScN0tNUArZAxLDgrD0gclWmErxGZBdqB1lTzbxbmElMoKgSiYbvW4mdgw9cSboRgJOhn-6CusCv8YVC9TiSDqZk4g_AVu9wpCsnFZ9GAV7_DVdnlZ9ovAQ0j3fUvkoT5WLFgW5t_tfqX6jziBZ7j1mpwJw-Bspz01DkPCnErT-ReQ8XjtrOJzVtk0vVeitvHYC47Ckf5-C_JKtowX5ZZ7CIy4Vtufg1S7h6oZFu0]--></g></svg>