<?xml version="1.0" encoding="us-ascii" standalone="no"?><svg xmlns="http://www.w3.org/2000/svg" xmlns:xlink="http://www.w3.org/1999/xlink" contentStyleType="text/css" height="800px" preserveAspectRatio="none" style="width:477px;height:800px;background:#FFFFFF;" version="1.1" viewBox="0 0 477 800" width="477px" zoomAndPan="magnify"><defs/><g><ellipse cx="228.21" cy="16" fill="#222222" rx="10" ry="10" style="stroke:#222222;stroke-width:1.0;"/><g id="Boot"><rect fill="#F9FFF9" height="50" rx="12.5" ry="12.5" style="stroke:#333333;stroke-width:0.5;" width="50" x="203.21" y="87"/><line style="stroke:#333333;stroke-width:0.5;" x1="203.21" x2="253.21" y1="114.6094" y2="114.6094"/><text fill="#000000" font-family="sans-serif" font-size="14" lengthAdjust="spacing" textLength="29" x="213.71" y="106.5332">Boot</text></g><g id="DisplayInit"><rect fill="#F9FFF9" height="50" rx="12.5" ry="12.5" style="stroke:#333333;stroke-width:0.5;" width="84" x="186.21" y="215"/><line style="stroke:#333333;stroke-width:0.5;" x1="186.21" x2="270.21" y1="242.6094" y2="242.6094"/><text fill="#000000" font-family="sans-serif" font-size="14" lengthAdjust="spacing" textLength="64" x="196.21" y="234.5332">DisplayInit</text></g><g id="WaitingForData"><rect fill="#F9FFF9" height="50" rx="12.5" ry="12.5" style="stroke:#333333;stroke-width:0.5;" width="119" x="168.71" y="343"/><line style="stroke:#333333;stroke-width:0.5;" x1="168.71" x2="287.71" y1="370.6094" y2="370.6094"/><text fill="#000000" font-family="sans-serif" font-size="14" lengthAdjust="spacing" textLength="99" x="178.71" y="362.5332">WaitingForData</text></g><g id="Active"><rect fill="#F9FFF9" height="50" rx="12.5" ry="12.5" style="stroke:#333333;stroke-width:0.5;" width="58" x="85.21" y="471"/><line style="stroke:#333333;stroke-width:0.5;" x1="85.21" x2="143.21" y1="498.6094" y2="498.6094"/><text fill="#000000" font-family="sans-serif" font-size="14" lengthAdjust="spacing" textLength="38" x="95.21" y="490.5332">Active</text></g><g id="Fault"><rect fill="#F9FFF9" height="67.7969" rx="12.5" ry="12.5" style="stroke:#333333;stroke-width:0.5;" width="308" x="57.21" y="727"/><line style="stroke:#333333;stroke-width:0.5;" x1="57.21" x2="365.21" y1="754.6094" y2="754.6094"/><text fill="#000000" font-family="sans-serif" font-size="14" lengthAdjust="spacing" textLength="32" x="195.21" y="746.5332">Fault</text><text fill="#000000" font-family="sans-serif" font-size="12" lengthAdjust="spacing" textLength="78" x="62.21" y="772.0664">UI shows fault</text><text fill="#000000" font-family="sans-serif" font-size="12" lengthAdjust="spacing" textLength="288" x="62.21" y="787.1602">Outputs gated (SystemStatus.outputsEnabled=false)</text></g><g id="Degraded"><rect fill="#F9FFF9" height="50" rx="12.5" ry="12.5" style="stroke:#333333;stroke-width:0.5;" width="83" x="169.71" y="599"/><line style="stroke:#333333;stroke-width:0.5;" x1="169.71" x2="252.71" y1="626.6094" y2="626.6094"/><text fill="#000000" font-family="sans-serif" font-size="14" lengthAdjust="spacing" textLength="63" x="179.71" y="618.5332">Degraded</text></g><!--link *start* to Boot--><g id="link_*start*_Boot"><path d="M228.21,26.01 C228.21,39.89 228.21,60.97 228.21,80.84 " fill="none" id="*start*-to-Boot" style="stroke:#444444;stroke-width:1.0;"/><polygon fill="#444444" points="228.21,86.84,232.21,77.84,228.21,81.84,224.21,77.84,228.21,86.84" style="stroke:#444444;stroke-width:1.0;"/></g><!--link Boot to DisplayInit--><g id="link_Boot_DisplayInit"><path d="M228.21,137.29 C228.21,159.61 228.21,186.49 228.21,208.78 " fill="none" id="Boot-to-DisplayInit" style="stroke:#444444;stroke-width:1.0;"/><polygon fill="#444444" points="228.21,214.78,232.21,205.78,228.21,209.78,224.21,205.78,228.21,214.78" style="stroke:#444444;stroke-width:1.0;"/><text fill="#000000" font-family="sans-serif" font-size="13" lengthAdjust="spacing" textLength="85" x="229.21" y="181.4951">InitOk(Display)</text></g><!--link DisplayInit to WaitingForData--><g id="link_DisplayInit_WaitingForData"><path d="M228.21,265.29 C228.21,287.61 228.21,314.49 228.21,336.78 " fill="none" id="DisplayInit-to-WaitingForData" style="stroke:#444444;stroke-width:1.0;"/><polygon fill="#444444" points="228.21,342.78,232.21,333.78,228.21,337.78,224.21,333.78,228.21,342.78" style="stroke:#444444;stroke-width:1.0;"/><text fill="#000000" font-family="sans-serif" font-size="13" lengthAdjust="spacing" textLength="146" x="229.21" y="309.4951">InitOk(CAN + UI + LVGL)</text></g><!--link WaitingForData to Active--><g id="link_WaitingForData_Active"><path d="M206.23,393.29 C186.04,415.61 160.3047,444.0401 140.1447,466.3301 " fill="none" id="WaitingForData-to-Active" style="stroke:#444444;stroke-width:1.0;"/><polygon fill="#444444" points="136.12,470.78,145.1237,466.7882,139.4739,467.0717,139.1904,461.422,136.12,470.78" style="stroke:#444444;stroke-width:1.0;"/><text fill="#000000" font-family="sans-serif" font-size="13" lengthAdjust="spacing" textLength="129" x="178.21" y="437.4951">ClusterFrame received</text></g><!--link WaitingForData to Fault--><g id="link_WaitingForData_Fault"><path d="M285.05,393.21 C297.19,400.99 308.63,410.83 316.21,423 C380.82,526.77 404.96,593.31 340.21,697 C332.68,709.05 327.0945,715.5202 315.2145,723.4802 " fill="none" id="WaitingForData-to-Fault" style="stroke:#444444;stroke-width:1.0;"/><polygon fill="#444444" points="310.23,726.82,319.9334,725.1333,314.3838,724.0368,315.4803,718.4873,310.23,726.82" style="stroke:#444444;stroke-width:1.0;"/><text fill="#000000" font-family="sans-serif" font-size="13" lengthAdjust="spacing" textLength="91" x="378.21" y="565.4951">InitFail(*) / Error</text></g><!--link Active to Degraded--><g id="link_Active_Degraded"><path d="M87.62,521.04 C75.05,535.38 64.83,553.71 75.21,569 C78.06,573.2 124.8449,591.1624 163.7549,605.6024 " fill="none" id="Active-to-Degraded" style="stroke:#444444;stroke-width:1.0;"/><polygon fill="#444444" points="169.38,607.69,162.334,600.8086,164.6924,605.9504,159.5506,608.3087,169.38,607.69" style="stroke:#444444;stroke-width:1.0;"/><text fill="#000000" font-family="sans-serif" font-size="13" lengthAdjust="spacing" textLength="83" x="76.21" y="565.4951">FrameTimeout</text></g><!--link Degraded to Active--><g id="link_Degraded_Active"><path d="M196.93,598.96 C188.08,584.63 176.14,566.3 164.21,551 C156.27,540.83 150.9279,534.6438 142.3879,525.5938 " fill="none" id="Degraded-to-Active" style="stroke:#444444;stroke-width:1.0;"/><polygon fill="#444444" points="138.27,521.23,141.5376,530.521,141.7016,524.8665,147.3561,525.0305,138.27,521.23" style="stroke:#444444;stroke-width:1.0;"/><text fill="#000000" font-family="sans-serif" font-size="13" lengthAdjust="spacing" textLength="132" x="177.21" y="565.4951">ClusterFrame resumes</text></g><!--link Active to Fault--><g id="link_Active_Fault"><path d="M85.12,520.77 C52.13,550.75 6,603.84 31.21,649 C50.71,683.94 80.8963,706.5214 115.2663,724.0714 " fill="none" id="Active-to-Fault" style="stroke:#444444;stroke-width:1.0;"/><polygon fill="#444444" points="120.61,726.8,114.4135,719.1447,116.1569,724.5262,110.7754,726.2696,120.61,726.8" style="stroke:#444444;stroke-width:1.0;"/><text fill="#000000" font-family="sans-serif" font-size="13" lengthAdjust="spacing" textLength="119" x="32.21" y="629.4951">Error / unrecoverable</text></g><!--link Degraded to Fault--><g id="link_Degraded_Fault"><path d="M211.21,649.14 C211.21,670.83 211.21,696.88 211.21,720.95 " fill="none" id="Degraded-to-Fault" style="stroke:#444444;stroke-width:1.0;"/><polygon fill="#444444" points="211.21,726.95,215.21,717.95,211.21,721.95,207.21,717.95,211.21,726.95" style="stroke:#444444;stroke-width:1.0;"/><text fill="#000000" font-family="sans-serif" font-size="13" lengthAdjust="spacing" textLength="119" x="212.21" y="693.4951">Error / unrecoverable</text></g><!--SRC=[VLBBJW8n5DtVhxY96mQ3Bc23YIQynf0GMU1ZOLnSQMTew4n97n1Y_7Vlr1a4DMpQvfnppttLhLMv8Ki5kXK9irDbZXbf9y4T6BBMx4P66uiNlLxlY76Ul1mQAwIj-Mwt-uUdvJgt9fIYrcJzBClw0A_jD-nqxd1eZ0U8slZ63_W4YA-A7YktqRIVbihZ3LRNVDsgmGIEsKhzGifp4wcnO_Bq4p0QFE0bFatvc3tVpnA0NyegUB3qQYivQAI3yzAct8H4AvUIOV5VH4f1DsMbf7IhdU0rJdXY5g2sYqt8t9AGWgNHz54LqWGF1_nSUXSAwKxichGn4ISC9HTfjjBIkvQdfkUbqD0y6RSoEyVRP-00puFV1Eymv-K8R2tsN5Unu5K5TsM-kKbPEOdR-6qI-080]--></g></svg>