<?xml version="1.0" encoding="us-ascii" standalone="no"?><svg xmlns="http://www.w3.org/2000/svg" xmlns:xlink="http://www.w3.org/1999/xlink" contentStyleType="text/css" height="802px" preserveAspectRatio="none" style="width:735px;height:802px;background:#FFFFFF;" version="1.1" viewBox="0 0 735 802" width="735px" zoomAndPan="magnify"><defs/><g><!--entity CAN0--><g id="elem_CAN0"><rect fill="#F9F9F9" height="55.2188" rx="2.5" ry="2.5" style="stroke:#333333;stroke-width:0.5;" width="100" x="350.18" y="7"/><text fill="#000000" font-family="sans-serif" font-size="14" lengthAdjust="spacing" textLength="70" x="360.18" y="31.5332">CAN Driver</text><text fill="#000000" font-family="sans-serif" font-size="14" lengthAdjust="spacing" textLength="80" x="360.18" y="49.1426">(esp32_can)</text></g><!--entity CanIf--><g id="elem_CanIf"><rect fill="#F9F9F9" height="55.2188" rx="2.5" ry="2.5" style="stroke:#333333;stroke-width:0.5;" width="101" x="349.68" y="140"/><text fill="#000000" font-family="sans-serif" font-size="14" lengthAdjust="spacing" textLength="81" x="359.68" y="164.5332">CanInterface</text><text fill="#000000" font-family="sans-serif" font-size="14" lengthAdjust="spacing" textLength="75" x="359.68" y="182.1426">(ISR + filter)</text></g><!--entity EQ--><g id="elem_EQ"><rect fill="#F9F9F9" height="55.2188" rx="2.5" ry="2.5" style="stroke:#333333;stroke-width:0.5;" width="198" x="177.18" y="273"/><text fill="#000000" font-family="sans-serif" font-size="14" lengthAdjust="spacing" textLength="79" x="187.18" y="297.5332">EventQueue</text><text fill="#000000" font-family="sans-serif" font-size="14" lengthAdjust="spacing" textLength="178" x="187.18" y="315.1426">(FreeRTOS Queue&lt;Event&gt;)</text></g><!--entity SC--><g id="elem_SC"><rect fill="#F9F9F9" height="55.2188" rx="2.5" ry="2.5" style="stroke:#333333;stroke-width:0.5;" width="128" x="212.18" y="440.5"/><text fill="#000000" font-family="sans-serif" font-size="14" lengthAdjust="spacing" textLength="108" x="222.18" y="465.0332">SystemController</text><text fill="#000000" font-family="sans-serif" font-size="14" lengthAdjust="spacing" textLength="100" x="222.18" y="482.6426">(State Machine)</text></g><!--entity MR--><g id="elem_MR"><rect fill="#F9F9F9" height="55.2188" rx="2.5" ry="2.5" style="stroke:#333333;stroke-width:0.5;" width="120" x="216.18" y="608"/><text fill="#000000" font-family="sans-serif" font-size="14" lengthAdjust="spacing" textLength="100" x="226.18" y="632.5332">MessageRouter</text><text fill="#000000" font-family="sans-serif" font-size="14" lengthAdjust="spacing" textLength="86" x="226.18" y="650.1426">(typed topics)</text></g><!--entity UI--><g id="elem_UI"><rect fill="#F9F9F9" height="55.2188" rx="2.5" ry="2.5" style="stroke:#333333;stroke-width:0.5;" width="94" x="61.18" y="741"/><text fill="#000000" font-family="sans-serif" font-size="14" lengthAdjust="spacing" textLength="74" x="71.18" y="765.5332">UiController</text><text fill="#000000" font-family="sans-serif" font-size="14" lengthAdjust="spacing" textLength="46" x="71.18" y="783.1426">(LVGL)</text></g><!--entity IO--><g id="elem_IO"><rect fill="#F9F9F9" height="55.2188" rx="2.5" ry="2.5" style="stroke:#333333;stroke-width:0.5;" width="80" x="405.18" y="741"/><text fill="#000000" font-family="sans-serif" font-size="14" lengthAdjust="spacing" textLength="60" x="415.18" y="765.5332">IOModule</text><text fill="#000000" font-family="sans-serif" font-size="14" lengthAdjust="spacing" textLength="53" x="415.18" y="783.1426">(Relays)</text></g><!--entity HM--><g id="elem_HM"><rect fill="#F9F9F9" height="55.2188" rx="2.5" ry="2.5" style="stroke:#333333;stroke-width:0.5;" width="107" x="474.68" y="608"/><text fill="#000000" font-family="sans-serif" font-size="14" lengthAdjust="spacing" textLength="87" x="484.68" y="632.5332">HealthMonitor</text><text fill="#000000" font-family="sans-serif" font-size="14" lengthAdjust="spacing" textLength="74" x="484.68" y="650.1426">(Watchdog)</text></g><!--class Cluster--><g id="elem_Cluster"><rect codeLine="22" fill="#F1F1F1" height="48" id="Cluster" rx="2.5" ry="2.5" style="stroke:#181818;stroke-width:0.5;" width="89" x="485.68" y="10.5"/><ellipse cx="500.68" cy="26.5" fill="#ADD1B2" rx="11" ry="11" style="stroke:#181818;stroke-width:1.0;"/><path d="M503.4456,22.375 Q503.6019,22.1563 503.7894,22.0469 Q503.9769,21.9375 504.1956,21.9375 Q504.5706,21.9375 504.805,22.1953 Q505.0394,22.4531 505.0394,23.0625 L505.0394,24.5156 Q505.0394,25.125 504.805,25.3906 Q504.5706,25.6563 504.1956,25.6563 Q503.8519,25.6563 503.6488,25.4531 Q503.4456,25.2656 503.3363,24.75 Q503.2894,24.3906 503.1019,24.2031 Q502.7738,23.8281 502.1644,23.6094 Q501.555,23.3906 500.93,23.3906 Q500.1644,23.3906 499.5316,23.7188 Q498.8988,24.0469 498.4066,24.7969 Q497.9144,25.5469 497.9144,26.5781 L497.9144,27.6719 Q497.9144,28.9063 498.805,29.7266 Q499.6956,30.5469 501.2894,30.5469 Q502.2269,30.5469 502.8831,30.2969 Q503.2738,30.1406 503.6956,29.7031 Q503.9613,29.4375 504.1097,29.3594 Q504.2581,29.2813 504.4613,29.2813 Q504.7894,29.2813 505.0472,29.5391 Q505.305,29.7969 505.305,30.1406 Q505.305,30.4844 504.9613,30.8906 Q504.4613,31.4688 503.6644,31.7969 Q502.5863,32.25 501.2894,32.25 Q499.7738,32.25 498.5706,31.625 Q497.5863,31.125 496.8988,30.0547 Q496.2113,28.9844 496.2113,27.7031 L496.2113,26.5469 Q496.2113,25.2188 496.8284,24.0703 Q497.4456,22.9219 498.5394,22.3047 Q499.6331,21.6875 500.8675,21.6875 Q501.6019,21.6875 502.2503,21.8516 Q502.8988,22.0156 503.4456,22.375 Z " fill="#000000"/><text fill="#000000" font-family="sans-serif" font-size="14" lengthAdjust="spacing" textLength="57" x="514.68" y="32.2285">Cluster_t</text><line style="stroke:#181818;stroke-width:0.5;" x1="486.68" x2="573.68" y1="42.5" y2="42.5"/><line style="stroke:#181818;stroke-width:0.5;" x1="486.68" x2="573.68" y1="50.5" y2="50.5"/></g><!--class SysStatus--><g id="elem_SysStatus"><rect codeLine="23" fill="#F1F1F1" height="48" id="SysStatus" rx="2.5" ry="2.5" style="stroke:#181818;stroke-width:0.5;" width="118" x="610.18" y="10.5"/><ellipse cx="625.18" cy="26.5" fill="#ADD1B2" rx="11" ry="11" style="stroke:#181818;stroke-width:1.0;"/><path d="M627.9456,22.375 Q628.1019,22.1563 628.2894,22.0469 Q628.4769,21.9375 628.6956,21.9375 Q629.0706,21.9375 629.305,22.1953 Q629.5394,22.4531 629.5394,23.0625 L629.5394,24.5156 Q629.5394,25.125 629.305,25.3906 Q629.0706,25.6563 628.6956,25.6563 Q628.3519,25.6563 628.1488,25.4531 Q627.9456,25.2656 627.8363,24.75 Q627.7894,24.3906 627.6019,24.2031 Q627.2738,23.8281 626.6644,23.6094 Q626.055,23.3906 625.43,23.3906 Q624.6644,23.3906 624.0316,23.7188 Q623.3988,24.0469 622.9066,24.7969 Q622.4144,25.5469 622.4144,26.5781 L622.4144,27.6719 Q622.4144,28.9063 623.305,29.7266 Q624.1956,30.5469 625.7894,30.5469 Q626.7269,30.5469 627.3831,30.2969 Q627.7738,30.1406 628.1956,29.7031 Q628.4613,29.4375 628.6097,29.3594 Q628.7581,29.2813 628.9613,29.2813 Q629.2894,29.2813 629.5472,29.5391 Q629.805,29.7969 629.805,30.1406 Q629.805,30.4844 629.4613,30.8906 Q628.9613,31.4688 628.1644,31.7969 Q627.0863,32.25 625.7894,32.25 Q624.2738,32.25 623.0706,31.625 Q622.0863,31.125 621.3988,30.0547 Q620.7113,28.9844 620.7113,27.7031 L620.7113,26.5469 Q620.7113,25.2188 621.3284,24.0703 Q621.9456,22.9219 623.0394,22.3047 Q624.1331,21.6875 625.3675,21.6875 Q626.1019,21.6875 626.7503,21.8516 Q627.3988,22.0156 627.9456,22.375 Z " fill="#000000"/><text fill="#000000" font-family="sans-serif" font-size="14" lengthAdjust="spacing" textLength="86" x="639.18" y="32.2285">SystemStatus</text><line style="stroke:#181818;stroke-width:0.5;" x1="611.18" x2="727.18" y1="42.5" y2="42.5"/><line style="stroke:#181818;stroke-width:0.5;" x1="611.18" x2="727.18" y1="50.5" y2="50.5"/></g><g id="elem_GMN22"><path d="M375.68,406 L375.68,464 L340.46,468 L375.68,472 L375.68,530.4609 A0,0 0 0 0 375.68,530.4609 L494.68,530.4609 A0,0 0 0 0 494.68,530.4609 L494.68,416 L484.68,406 L375.68,406 A0,0 0 0 0 375.68,406 " fill="#FFF8DC" style="stroke:#181818;stroke-width:0.5;"/><path d="M484.68,406 L484.68,416 L494.68,416 L484.68,406 " fill="#FFF8DC" style="stroke:#181818;stroke-width:0.5;"/><text fill="#000000" font-family="sans-serif" font-size="13" lengthAdjust="spacing" textLength="42" x="381.68" y="424.4951">States:</text><text fill="#000000" font-family="sans-serif" font-size="13" lengthAdjust="spacing" textLength="35" x="381.68" y="440.8467">- Boot</text><text fill="#000000" font-family="sans-serif" font-size="13" lengthAdjust="spacing" textLength="68" x="381.68" y="457.1982">- DisplayInit</text><text fill="#000000" font-family="sans-serif" font-size="13" lengthAdjust="spacing" textLength="98" x="381.68" y="473.5498">- WaitingForData</text><text fill="#000000" font-family="sans-serif" font-size="13" lengthAdjust="spacing" textLength="43" x="381.68" y="489.9014">- Active</text><text fill="#000000" font-family="sans-serif" font-size="13" lengthAdjust="spacing" textLength="63" x="381.68" y="506.2529">- Degraded</text><text fill="#000000" font-family="sans-serif" font-size="13" lengthAdjust="spacing" textLength="37" x="381.68" y="522.6045">- Fault</text></g><g id="elem_GMN25"><path d="M410.18,279 L410.18,321.7031 L636.18,321.7031 L636.18,289 L626.18,279 L410.18,279 " fill="#FFF8DC" style="stroke:#181818;stroke-width:0.5;"/><path d="M626.18,279 L626.18,289 L636.18,289 L626.18,279 " fill="#FFF8DC" style="stroke:#181818;stroke-width:1.0;"/><text fill="#000000" font-family="sans-serif" font-size="13" lengthAdjust="spacing" textLength="166" x="416.18" y="297.4951">Mailbox filter watchFor(0x65)</text><text fill="#000000" font-family="sans-serif" font-size="13" lengthAdjust="spacing" textLength="205" x="416.18" y="313.8467">Unpack via Unpack_Cluster_lecture</text></g><!--link CAN0 to CanIf--><g id="link_CAN0_CanIf"><path codeLine="26" d="M400.18,62.01 C400.18,84.59 400.18,110.88 400.18,133.58 " fill="none" id="CAN0-to-CanIf" style="stroke:#555555;stroke-width:1.0;"/><polygon fill="#555555" points="400.18,139.58,404.18,130.58,400.18,134.58,396.18,130.58,400.18,139.58" style="stroke:#555555;stroke-width:1.0;"/><text fill="#000000" font-family="sans-serif" font-size="13" lengthAdjust="spacing" textLength="41" x="401.18" y="106.4951">RX ISR</text></g><!--link CanIf to EQ--><g id="link_CanIf_EQ"><path codeLine="27" d="M349.53,180.88 C325.86,189.33 299.56,203.09 284.18,225 C274.53,238.73 272.4113,251.5424 272.8413,266.8324 " fill="none" id="CanIf-to-EQ" style="stroke:#555555;stroke-width:1.0;"/><polygon fill="#555555" points="273.01,272.83,276.7554,263.7211,272.8694,267.832,268.7586,263.946,273.01,272.83" style="stroke:#555555;stroke-width:1.0;"/><text fill="#000000" font-family="sans-serif" font-size="13" lengthAdjust="spacing" textLength="207" x="285.18" y="239.4951">PushFromISR(Event::ClusterFrame)</text></g><!--link EQ to SC--><g id="link_EQ_SC"><path codeLine="28" d="M276.18,328.09 C276.18,358.97 276.18,403.62 276.18,434.48 " fill="none" id="EQ-to-SC" style="stroke:#555555;stroke-width:1.0;"/><polygon fill="#555555" points="276.18,440.48,280.18,431.48,276.18,435.48,272.18,431.48,276.18,440.48" style="stroke:#555555;stroke-width:1.0;"/><text fill="#000000" font-family="sans-serif" font-size="13" lengthAdjust="spacing" textLength="63" x="277.18" y="372.4951">Pop(Event)</text></g><!--link SC to MR--><g id="link_SC_MR"><path codeLine="29" d="M223.76,495.64 C190.81,516.2 157.73,546.39 176.18,578 C185.22,593.5 194.9943,602.2222 210.7043,610.7322 " fill="none" id="SC-to-MR" style="stroke:#555555;stroke-width:1.0;"/><polygon fill="#555555" points="215.98,613.59,209.9717,605.7862,211.5836,611.2085,206.1613,612.8204,215.98,613.59" style="stroke:#555555;stroke-width:1.0;"/><text fill="#000000" font-family="sans-serif" font-size="13" lengthAdjust="spacing" textLength="152" x="177.18" y="574.4951">PublishCluster(Cluster, ts)</text></g><!--link SC to MR--><g id="link_SC_MR"><path codeLine="30" d="M298.95,495.66 C312.05,512.81 327.26,536.26 334.18,560 C339.41,577.94 332.829,590.5364 319.099,603.5864 " fill="none" id="SC-to-MR-1" style="stroke:#555555;stroke-width:1.0;stroke-dasharray:7.0,7.0;"/><polygon fill="#555555" points="314.75,607.72,324.0292,604.4189,318.3741,604.2754,318.5177,598.6203,314.75,607.72" style="stroke:#555555;stroke-width:1.0;"/><text fill="#000000" font-family="sans-serif" font-size="13" lengthAdjust="spacing" textLength="214" x="337.18" y="574.4951">PublishSystemStatus(SysStatus, ts)</text></g><!--link MR to UI--><g id="link_MR_UI"><path codeLine="31" d="M216.02,641.42 C148.99,648.3 46.89,663.41 23.18,693 C6,714.44 27.66,732.0336 55.69,746.0036 " fill="none" id="MR-to-UI" style="stroke:#555555;stroke-width:1.0;"/><polygon fill="#555555" points="61.06,748.68,54.7892,741.0854,56.585,746.4497,51.2207,748.2454,61.06,748.68" style="stroke:#555555;stroke-width:1.0;"/><text fill="#000000" font-family="sans-serif" font-size="13" lengthAdjust="spacing" textLength="121" x="24.18" y="707.4951">SubscribeCluster(cb)</text></g><!--link UI to MR--><g id="link_UI_MR"><path codeLine="35" d="M133.34,740.94 C148.07,726.06 167.41,707.61 186.18,693 C199.72,682.46 210.1995,675.2798 224.5495,666.3898 " fill="none" id="UI-to-MR" style="stroke:#555555;stroke-width:1.0;stroke-dasharray:7.0,7.0;"/><polygon fill="#555555" points="229.65,663.23,219.8926,664.5694,225.3996,665.8632,224.1058,671.3701,229.65,663.23" style="stroke:#555555;stroke-width:1.0;"/><text fill="#000000" font-family="sans-serif" font-size="13" lengthAdjust="spacing" textLength="133" x="187.18" y="707.4951">optional pull/sticky last</text></g><!--link MR to IO--><g id="link_MR_IO"><path codeLine="32" d="M304.9,663.31 C321.02,677.93 341.74,696.04 361.18,711 C375.11,721.72 385.9696,729.364 400.1296,738.754 " fill="none" id="MR-to-IO" style="stroke:#555555;stroke-width:1.0;"/><polygon fill="#555555" points="405.13,742.07,399.84,733.7624,400.963,739.3067,395.4187,740.4297,405.13,742.07" style="stroke:#555555;stroke-width:1.0;"/><text fill="#000000" font-family="sans-serif" font-size="13" lengthAdjust="spacing" textLength="121" x="362.18" y="707.4951">SubscribeCluster(cb)</text></g><!--link IO to MR--><g id="link_IO_MR"><path codeLine="36" d="M476.05,740.92 C489.41,726.2 499.64,707.92 488.18,693 C469.7,668.95 398.0996,653.8766 342.1396,645.2266 " fill="none" id="IO-to-MR" style="stroke:#555555;stroke-width:1.0;stroke-dasharray:7.0,7.0;"/><polygon fill="#555555" points="336.21,644.31,344.4933,649.6379,341.1513,645.0738,345.7154,641.7318,336.21,644.31" style="stroke:#555555;stroke-width:1.0;"/><text fill="#000000" font-family="sans-serif" font-size="13" lengthAdjust="spacing" textLength="204" x="494.18" y="707.4951">consumes Cluster + SystemStatus</text></g><!--link MR to HM--><g id="link_MR_HM"><path codeLine="33" d="M336.22,635.5 C378.29,635.5 428.03,635.5 468.6,635.5 " fill="none" id="MR-to-HM" style="stroke:#555555;stroke-width:1.0;"/><polygon fill="#555555" points="474.6,635.5,465.6,631.5,469.6,635.5,465.6,639.5,474.6,635.5" style="stroke:#555555;stroke-width:1.0;"/><text fill="#000000" font-family="sans-serif" font-size="13" lengthAdjust="spacing" textLength="102" x="354.43" y="628.9951">GetLastSeenMs()</text></g><!--link CanIf to GMN25--><g id="link_CanIf_GMN25"><path d="M450.92,187.33 C469.02,196.29 488.14,208.67 501.18,225 C513.55,240.49 518.97,262.76 521.34,278.91 " fill="none" id="CanIf-GMN25" style="stroke:#555555;stroke-width:1.0;stroke-dasharray:7.0,7.0;"/></g><!--SRC=[VPHlRvim4CRV-rESkXTBjFMF5cNQegbIcpOjKcdMiAnxCIbou0XMZ8riqpJVVcSCAT6cYHTWxlSyzd5tsArG5JUyX5INbLQeNEBs4i5WwhZQI6JsWDY2Ptedr0PoBcq_metHkwcMsi2xyNZSYnnihxN9qBJCQ3Jw9yFJxSReMcKjbt_rLmzLsk7VL9v_oLB6tiELb7e7fNZrXppO0bSPf99Rw_NS2Qqi20MkGB2yHCW4tv0xurw-2d9lzwWpj70Eqyx9iZVJa-dL8zmOyOBcjngWhKQVLYbNmnFW5YXsSSHo5Ic79kSf4Xqb2_W0kP3qgXKGaFSLjozqUwgnzlpC82v-p1DeNdnhOfT1UFlKLoLxwx2SQkMCbh8vMK8P8yGyBOJ2e4ccVKsCrl8DBdJj6e7RLvY1qvL8RU3ZHPzVYYF_Xvzt3m5RHdqiciSwgwK__W8btxTUqRmFtIENheYr4avxisVkqYBJcy3UnxuADznny8UYhzyKyMGgQqhJh5puT67L1SCdy5dNDcIxjs7bpHQ_8FD-ELMQ-Ih1AVMqEhqC5O299wWyB2oxuEqJHRxNjfWPNL9uq9HWCcdtdb7tu90HrGcIgHVeAe13Hkik52yQhxKKjcZrW_R-4PnjsBEpOwwVrE2GKC29wwoN4KcIUcrJ8zROcQVh8oYQ_myoObCuekvZekxGFN3h4aGLsy6GCThWS3HT-KdY4gfQodFhHBhT0zN0CThXGAKqR7M9Xp9Ht_UJOSoFD3IxWivzQpODQoVi5AwrTdIx4RQY1egeIMZrp8MZ-Pnfunk3NbobZeRGSqXJd656ZpDUIyUGvjxRjvkijNEwzBk4QOkva6lzsiuXx7plaUtWulNpUCYMzCj9j_0YE8J7LTTsalwDjS4t-py0]--></g></svg>